<?xml version="1.0" encoding="UTF-8"?>
<svg width="64px" height="107px" viewBox="0 0 64 107" version="1.1" xmlns="http://www.w3.org/2000/svg" xmlns:xlink="http://www.w3.org/1999/xlink">
    <!-- Generator: Sketch 43.2 (39069) - http://www.bohemiancoding.com/sketch -->
    <title>logo-white</title>
    <desc>Created with Sketch.</desc>
    <defs></defs>
    <g id="new-landing" stroke="none" stroke-width="1" fill="none" fill-rule="evenodd">
        <g id="logo-white" fill="#FAFAFF">
            <g id="logo-copy">
                <path d="M40.4880783,18 L40.4837818,18 L31.0586853,18 L21.6321566,18 L21.6278601,18 L21.6235636,18 C21.3485874,18.0014322 21.0693147,18.0687441 20.8115245,18.2119608 C20.0037818,18.6630937 19.7087552,19.7014154 20.1598881,20.5105902 L20.1598881,20.5120224 L20.1598881,20.5134545 L22.9554797,25.125035 L22.9554797,37.1036867 C10.8379077,40.7113175 2,51.9309203 2,65.2200056 C2,81.4221203 15.1344112,94.5579636 31.337958,94.5579636 C47.5400727,94.5579636 60.6759161,81.4221203 60.6759161,65.2200056 C60.6759161,51.7275524 51.5644643,40.3704615 39.1604587,36.9461483 L39.1604587,25.125035 L41.9560503,20.5134545 L41.9560503,20.5120224 L41.9574825,20.5105902 C42.4071832,19.7014154 42.1121566,18.6630937 41.304414,18.2119608 C41.0480559,18.0687441 40.7687832,18.0014322 40.493807,18 L40.4880783,18 M38.6606322,20.7153902 L36.8403469,23.7186462 L36.4465007,24.3674182 L36.4465007,25.125035 L36.4465007,36.9461483 L36.4465007,39.0113343 L38.4386462,39.5627189 C49.9332252,42.7349706 57.9605259,53.2871832 57.9605259,65.2200056 C57.9605259,79.8997259 46.0176783,91.8425734 31.337958,91.8425734 C16.6568056,91.8425734 4.71395804,79.8997259 4.71395804,65.2200056 C4.71395804,59.3696 6.57577622,53.8199497 10.0974769,49.1711329 C13.5074685,44.6698294 18.3481958,41.3070993 23.7302825,39.7059357 L25.6694378,39.1273399 L25.6694378,37.1036867 L25.6694378,25.125035 L25.6694378,24.3674182 L25.2770238,23.7186462 L23.4567385,20.7153902 L31.0586853,20.7153902 L38.6606322,20.7153902" id="Fill-1"></path>
                <path d="M30.8675916,11.9345119 C30.8675916,13.5542937 29.5542937,14.8675916 27.9330797,14.8675916 C26.3132979,14.8675916 25,13.5542937 25,11.9345119 C25,10.3147301 26.3132979,9 27.9330797,9 C29.5542937,9 30.8675916,10.3147301 30.8675916,11.9345119" id="Fill-3"></path>
                <path d="M37.1919552,7.09526154 C37.1919552,8.25245315 36.2538853,9.19052308 35.0966937,9.19052308 C33.9395021,9.19052308 33,8.25245315 33,7.09526154 C33,5.93806993 33.9395021,5 35.0966937,5 C36.2538853,5 37.1919552,5.93806993 37.1919552,7.09526154" id="Fill-5"></path>
                <path d="M44.8737119,48.563972 C47.6664392,50.7251133 50.1798937,53.1096727 52.4083469,55.6689566 C49.2991105,49.1926937 43.2553622,44.3977958 36,43 C39.0734322,44.5252587 42.0480448,46.3770517 44.8737119,48.563972" id="Fill-7"></path>
                <path d="M32.3527049,1.67563636 C32.3527049,2.60081678 31.602249,3.35127273 30.6770685,3.35127273 C29.7504559,3.35127273 29,2.60081678 29,1.67563636 C29,0.750455944 29.7504559,0 30.6770685,0 C31.602249,0 32.3527049,0.750455944 32.3527049,1.67563636" id="Fill-9"></path>
                <path d="M8,63.0286434 L8.06444755,63.1360559 C8.06444755,63.1374881 8.06301538,63.1374881 8.06301538,63.1374881 C8.06731189,63.0916587 8.07017622,63.0458294 8.07447273,63 C8.02721119,63.0186182 8,63.0286434 8,63.0286434" id="Fill-11"></path>
                <path d="M60.6222322,65.6817119 C62.0816112,66.2674685 63.3032503,68.3541371 62.9108364,69.8765315 C62.2362853,69.3738406 61.5645986,68.8725818 60.8914797,68.3698909 C61.875379,69.7390434 62.8936503,71.2055832 63.0053594,72.8869483 C63.1342545,74.8361287 62.0128671,76.7480727 62.3365371,78.6729063 L60.0794406,79.0910993 C60.7468308,80.5891469 61.2652755,82.1545063 61.6233175,83.7556699 C61.0404252,83.7370517 60.4575329,83.7184336 59.8746406,83.7012476 C59.6784336,85.8079664 58.7962182,87.8473734 57.3926937,89.4327832 C57.2666629,88.5419748 56.1567329,87.9504895 55.3489902,88.3429035 C56.2985175,89.3053203 55.8001231,91.0024392 54.8448671,91.9605594 C53.888179,92.9172476 52.5892028,93.4729287 51.6310825,94.4281846 C51.242965,94.8148699 50.9164308,95.2645706 50.6686657,95.7529399 C50.3091916,96.4589986 49.7664,97.4214154 49.0245371,97.1421427 C48.554786,98.5628531 47.6596811,99.8403469 46.4853035,100.768392 C46.1917091,100.447586 45.8981147,100.12678 45.6045203,99.807407 C45.0359497,100.540677 44.4688112,101.275379 43.9002406,102.008649 L43.5894601,100.416078 C42.4623441,102.075961 40.8783664,103.419334 39.056649,104.260017 C38.698607,103.669964 38.3391329,103.07991 37.9810909,102.49129 C37.1561622,102.620185 36.4142993,103.574008 35.9345231,104.921678 C34.8231608,104.529264 34.2087608,103.405013 33.1833287,103.513857 C32.0676699,104.040895 31.3444252,105.780979 30.4249734,106.5744 C29.9638154,105.876934 29.3408224,105.286881 28.6175776,104.865824 C28.3898629,105.218137 28.1621483,105.571883 27.9358657,105.925628 C27.1639273,104.874417 26.2330182,103.942076 25.1846713,103.167273 C24.9669818,103.705768 24.7492923,104.245695 24.5316028,104.78419 C23.6880559,103.579737 22.5638042,102.572923 21.273421,101.866864 C21.2433455,102.333751 20.9268364,102.76913 20.4928895,102.945287 C19.7968559,101.557516 18.5924028,100.431832 17.1630993,99.8288895 C17.2977231,100.575049 17.0342042,101.382792 16.4842517,101.905533 C15.4702769,100.358792 14.941807,98.0816448 13.8590881,97.0275692 C13.670042,96.8728951 12.8608671,96.4131692 12.2063664,97.528828 C11.656414,96.9846042 11.5647552,96.138193 11.1952559,95.4579133 C10.8257566,94.7762014 9.79316364,94.2964252 9.32054825,94.9108252 C9.35205594,93.7636587 8.57868531,92.6408392 7.49596643,92.2627469 C7.15367832,90.6272112 6.81139021,88.9945399 6.46766993,87.3604364 C6.25141259,88.4087832 6.03372308,89.4571301 5.81746573,90.5040448 C3.95278322,88.8527552 3.04478881,86.1874909 3.51453986,83.7413483 C2.97174825,84.0664503 2.42895664,84.3929846 1.8875972,84.7195189 C2.27857902,82.4767441 2.48910769,80.2010294 2.51345455,77.9224503 C1.90478322,78.4852923 1.29611189,79.0481343 0.687440559,79.6095441 C1.02686434,78.0928783 1.36772028,76.5762126 1.70714406,75.060979 C1.13857343,75.5020867 0.570002797,75.9446266 0,76.3871664 C0.223418182,73.6689119 0.187613986,72.6821483 1.22307133,70.1586685 C0.943798601,70.316207 0.829225175,70.5281678 0.110276923,71.6366657 C1.11279441,69.6488168 1.4378965,67.3229762 2.44184615,65.3351273 L5.96068252,77.2149594 L10.8816112,84.2554965 L18.0925762,89.9383385 L28.5259189,93.501572 L38.6198378,92.9917203 L45.5758769,89.6848448 L51.3432168,85.1033399 L54.9064503,80.2683413 L58.5541818,73.2278042 L59.741449,65 L60.6222322,65.6817119 Z" id="Fill-15"></path>
                <path d="M32.2208224,71.7957654 C33.224772,71.6210409 34.1184448,71.6425234 34.9261874,71.860213 C35.2670434,71.9533039 36.5087329,72.1939081 37.6816783,73.2322297 C38.7157035,74.147385 39.0794741,76.400185 39.4518378,76.844157 C39.6580699,77.1506409 39.5392,77.1506409 39.5392,77.1506409 C39.4188979,77.2695109 39.2112336,77.1835808 39.2112336,77.1835808 C38.9720615,77.1721234 37.7948196,76.997399 36.8782322,76.5835025 C36.714965,76.5720451 36.8238098,76.7252871 36.8238098,76.7567948 C36.8997147,76.9759164 37.1732587,77.3353906 37.1732587,77.3353906 C37.2276811,77.4112955 37.3365259,77.4227528 37.0629818,77.4771752 C36.7908699,77.5315976 36.3211189,77.3783556 36.3211189,77.3783556 C36.0160671,77.3139081 34.4464112,76.4846829 34.3475916,76.408778 C34.2502042,76.3314409 34.2502042,76.7897346 34.2817119,76.9544339 C34.3146517,77.1177011 34.2172643,77.1291584 34.1513846,77.1506409 C34.0855049,77.1721234 33.539849,77.0417962 32.8423832,76.408778 C32.4385119,76.059329 32.405572,76.1252088 32.319642,76.2011136 C32.2322797,76.2770185 32.0246154,76.7567948 32.0246154,76.7567948 C32.013158,76.8341318 31.970193,76.844157 31.8942881,76.7797095 C31.8226797,76.7181262 31.1653147,75.964806 31.0521734,75.6654829 C30.9376,75.964806 30.0611133,76.7181262 29.9895049,76.7797095 C29.9136,76.844157 29.8692028,76.8341318 29.8591776,76.7567948 C29.8591776,76.7567948 29.3120895,76.2770185 29.2247273,76.2011136 C29.137365,76.1252088 29.1058573,76.059329 28.7005538,76.408778 C28.0030881,77.0417962 27.4588643,77.1721234 27.3929846,77.1506409 C27.3271049,77.1291584 27.2297175,77.1177011 27.2626573,76.9544339 C27.2955972,76.7897346 27.2955972,76.3314409 27.1967776,76.408778 C27.097958,76.4846829 25.5283021,77.3139081 25.2232503,77.3783556 C25.2232503,77.3783556 24.7534993,77.5315976 24.4813874,77.4771752 C24.2078434,77.4227528 24.3166881,77.4112955 24.3725427,77.3353906 C24.3725427,77.3353906 24.6446545,76.9759164 24.7205594,76.7567948 C24.7205594,76.7252871 24.8294042,76.5720451 24.6661371,76.5835025 C23.7495497,76.997399 22.5723077,77.1721234 22.3331357,77.1835808 C22.3331357,77.1835808 22.1254713,77.2695109 22.0051692,77.1506409 C22.0051692,77.1506409 21.8848671,77.1506409 22.0925315,76.844157 C22.4648951,76.400185 22.8286657,74.147385 23.8626909,73.2322297 C25.0356364,72.1939081 26.2773259,71.9533039 26.6181818,71.860213 C27.4259245,71.6425234 28.3195972,71.6210409 29.3235469,71.7957654 L31.0521734,71.7957654 L32.2208224,71.7957654 Z M54.0742713,64.5189206 C54.0570853,64.1537178 54.0298741,63.7899472 53.9955021,63.4276088 C53.9453762,62.9048675 53.8766322,62.3878549 53.7935664,61.8751388 C51.775642,60.2524927 48.4458517,59.3989206 43.6595469,59.0308535 C38.2115804,58.6112283 30.2487273,62.5926549 27.9429371,63.6410018 C25.638579,64.6893486 20.1891804,64.2697234 16.2077538,63.0122801 C12.531379,61.850792 8.67884755,63.1913011 8.11027692,63.4032619 C8.10598042,63.4490913 8.10311608,63.4949206 8.09881958,63.54075 C8.06874406,63.881606 8.0443972,64.2238941 8.02721119,64.5690465 C8.01145734,64.9213598 8,65.2751053 8,65.631715 C8,78.3622549 18.3202014,88.6824563 31.0521734,88.6824563 C43.7827133,88.6824563 54.1029147,78.3622549 54.1029147,65.631715 C54.1029147,65.2593514 54.0928895,64.8884199 54.0742713,64.5189206 L54.0742713,64.5189206 Z" id="Fill-13"></path>
            </g>
        </g>
    </g>
</svg>